<?xml version="1.0" encoding="UTF-8"?>
<svg version="1.1" xmlns="http://www.w3.org/2000/svg" width="167" height="170">
<path d="M0 0 C1.1330692 0.92773133 2.25906382 1.86422911 3.375 2.8125 C4.86 3.92625 4.86 3.92625 6.375 5.0625 C20.12748137 16.8822002 27.98965515 35.1564895 30.375 52.8125 C31.59580609 75.51479778 26.18403441 95.69037301 10.9375 113.0625 C9.43377981 114.66209497 7.9138878 116.24670857 6.375 117.8125 C5.76140625 118.43898437 5.1478125 119.06546875 4.515625 119.7109375 C-11.04396631 134.40610707 -31.37685753 139.36377969 -52.19921875 139.09765625 C-62.53397604 138.73779331 -72.50180709 135.64541818 -81.625 130.8125 C-82.42164063 130.39355469 -83.21828125 129.97460938 -84.0390625 129.54296875 C-90.70949072 125.79472503 -96.1798586 121.16180691 -101.625 115.8125 C-102.39972656 115.06226563 -103.17445312 114.31203125 -103.97265625 113.5390625 C-119.05546516 97.96470407 -124.13234728 77.86111357 -123.8359375 56.671875 C-123.20022962 36.53327718 -113.73624202 18.1884144 -99.3125 4.4375 C-70.70906205 -20.06249115 -30.51208312 -22.44900412 0 0 Z " fill="#AFBEF3" transform="translate(130.625,25.1875)"/>
<path d="M0 0 C2.01642698 0.99249524 4.00580023 2.00326335 5.96484375 3.10546875 C8.97818685 4.75833219 11.21348903 5.98170905 14.6875 6.0625 C17.79002723 4.63701451 19.6679823 2.45807271 22 0 C22.66 0 23.32 0 24 0 C24 3 24 3 22.5 4.6875 C22.005 5.120625 21.51 5.55375 21 6 C21.66 6 22.32 6 23 6 C22.4121875 7.11375 22.4121875 7.11375 21.8125 8.25 C21.544375 9.1575 21.27625 10.065 21 11 C21.98164306 12.34690559 22.98474139 13.67824823 24 15 C24.94921875 17.578125 24.94921875 17.578125 25.6875 20.25 C25.93886719 21.14203125 26.19023438 22.0340625 26.44921875 22.953125 C26.63097656 23.62859375 26.81273438 24.3040625 27 25 C27.78761719 24.814375 28.57523437 24.62875 29.38671875 24.4375 C32 24 32 24 33.8125 25 C35.67747866 28.14101668 35.42545562 30.41401691 35 34 C32.97333762 37.70390021 31.51955484 39.65363011 28 42 C27.01 42 26.02 42 25 42 C24.79375 42.845625 24.5875 43.69125 24.375 44.5625 C22.69396194 48.76509516 20.33547239 51.93644112 17 55 C16.34 55 15.68 55 15 55 C15.24174992 57.70759911 15.55902611 60.3223338 16 63 C16.11472656 63.72832031 16.22945312 64.45664063 16.34765625 65.20703125 C16.93976874 67.57109518 17.48583251 69.07851261 19 71 C23.59587339 73.17068939 28.42273686 73.82793493 33.4375 74.375 C40.50029242 75.61408639 48.44375678 78.20411065 53 84 C53 85.32 53 86.64 53 88 C53.66 88.33 54.32 88.66 55 89 C36.8435152 103.33598199 16.930376 109.19031024 -6 107 C-19.89879713 104.86589712 -35.53820127 98.72337189 -45 88 C-44.34 88 -43.68 88 -43 88 C-42.9175 87.2575 -42.835 86.515 -42.75 85.75 C-41.83997396 82.41323787 -40.72201875 81.09984303 -38 79 C-36.68 79 -35.36 79 -34 79 C-34 78.34 -34 77.68 -34 77 C-33.01 76.896875 -32.02 76.79375 -31 76.6875 C-28.2039717 76.29527158 -25.8036159 75.61747138 -23.1875 74.5625 C-18.58437221 72.7176315 -13.87098323 71.84842946 -9 71 C-8.46748234 69.08654673 -7.94940517 67.1690705 -7.4375 65.25 C-7.14746094 64.18265625 -6.85742188 63.1153125 -6.55859375 62.015625 C-6.00784051 59.04232776 -5.78647452 57.71919598 -7 55 C-8.98476483 52.61660375 -11.12125867 50.43969233 -13.28515625 48.21875 C-15 46 -15 46 -15 42 C-16.11375 41.9071875 -16.11375 41.9071875 -17.25 41.8125 C-20.86782848 40.74359613 -21.93843714 39.09234428 -24 36 C-25.1577506 32.52674819 -25.06866652 29.63932552 -25 26 C-23.9275 25.67 -22.855 25.34 -21.75 25 C-17.65305584 23.27108956 -16.78010393 21.02244012 -15.1015625 17.07421875 C-13.24490375 13.57816983 -10.29367697 11.14170128 -7 9 C-6.34 9 -5.68 9 -5 9 C-4.731875 8.2575 -4.46375 7.515 -4.1875 6.75 C-3.05770579 4.13363446 -1.79106798 2.19812889 0 0 Z " fill="#EBA56E" transform="translate(79,57)"/>
<path d="M0 0 C1.94948107 1.50303502 3.74435327 3.09124462 5.546875 4.765625 C7.85249123 6.21916567 10.11280145 7.54858822 12.546875 8.765625 C12.546875 9.425625 12.546875 10.085625 12.546875 10.765625 C13.475 11.2296875 13.475 11.2296875 14.421875 11.703125 C18.00797095 13.49617298 18.94772575 14.22279811 20.60546875 17.921875 C21.18458008 19.20964844 21.18458008 19.20964844 21.77539062 20.5234375 C22.17435547 21.42835937 22.57332031 22.33328125 22.984375 23.265625 C23.37947266 24.13960937 23.77457031 25.01359375 24.18164062 25.9140625 C29.10016058 36.94595085 31.71643115 46.76371472 31.796875 58.890625 C31.8175 59.67566406 31.838125 60.46070313 31.859375 61.26953125 C31.89071724 65.91601859 31.66387031 69.06588709 28.546875 72.765625 C24.32786447 76.2356083 20.27872688 76.26412081 15.046875 76.390625 C13.55717659 76.44208263 12.06758316 76.4966909 10.578125 76.5546875 C9.88203125 76.58079102 9.1859375 76.60689453 8.46875 76.63378906 C6.11183272 76.79546784 3.85843605 77.29442217 1.546875 77.765625 C0.546875 76.765625 0.546875 76.765625 0.171875 72.953125 C0.19921875 70.7421875 0.19921875 70.7421875 0.546875 68.765625 C2.734375 66.828125 2.734375 66.828125 5.546875 64.765625 C6.41057888 63.27327589 7.21922813 61.74832419 7.984375 60.203125 C10.18723371 55.94333829 12.11122002 54.69417064 16.546875 52.765625 C19.06949108 49.7384857 19.52406679 48.03476184 19.859375 44.078125 C19.89471468 40.68841953 19.89471468 40.68841953 17.546875 38.765625 C14.96333282 38.59875052 14.96333282 38.59875052 12.546875 38.765625 C12.20914063 37.93417969 11.87140625 37.10273437 11.5234375 36.24609375 C10.85441406 34.61607422 10.85441406 34.61607422 10.171875 32.953125 C9.73101562 31.87417969 9.29015625 30.79523438 8.8359375 29.68359375 C7.5989631 26.65832388 7.5989631 26.65832388 5.546875 23.765625 C6.536875 22.445625 7.526875 21.125625 8.546875 19.765625 C6.896875 20.755625 5.246875 21.745625 3.546875 22.765625 C4.59562498 20.14375006 5.19618813 18.97191139 7.671875 17.515625 C8.290625 17.268125 8.909375 17.020625 9.546875 16.765625 C9.546875 15.775625 9.546875 14.785625 9.546875 13.765625 C9.05058594 14.28253906 8.55429688 14.79945312 8.04296875 15.33203125 C2.48952746 20.71686711 2.48952746 20.71686711 -2.078125 20.953125 C-5.71028913 19.67514132 -8.37937879 18.07093466 -11.453125 15.765625 C-12.443125 15.105625 -13.433125 14.445625 -14.453125 13.765625 C-14.72125 14.3225 -14.989375 14.879375 -15.265625 15.453125 C-15.8534375 16.5978125 -15.8534375 16.5978125 -16.453125 17.765625 C-16.824375 18.549375 -17.195625 19.333125 -17.578125 20.140625 C-19.4134356 22.71005985 -20.76688309 23.77282505 -23.328125 25.515625 C-27.42889037 28.38915402 -29.04584952 31.41936592 -31.22265625 35.83984375 C-32.453125 37.765625 -32.453125 37.765625 -35.765625 39.328125 C-36.6525 39.4725 -37.539375 39.616875 -38.453125 39.765625 C-38.76618641 44.98331509 -38.43174336 48.39698474 -35.453125 52.765625 C-33.46132091 53.78185158 -31.46159865 54.78275492 -29.453125 55.765625 C-28.99679688 56.91611328 -28.99679688 56.91611328 -28.53125 58.08984375 C-26.95680005 61.99744598 -24.07910874 64.2577032 -21.03515625 67.09375 C-18.69374569 71.04813227 -19.59643291 74.39027026 -20.453125 78.765625 C-24.56146891 78.4072328 -28.66310113 77.99757386 -32.765625 77.578125 C-33.93287109 77.47693359 -35.10011719 77.37574219 -36.30273438 77.27148438 C-37.42099609 77.15224609 -38.53925781 77.03300781 -39.69140625 76.91015625 C-40.72305908 76.81065674 -41.75471191 76.71115723 -42.81762695 76.60864258 C-45.453125 75.765625 -45.453125 75.765625 -47.28613281 73.37207031 C-54.4132186 57.45391803 -43.30291076 31.04311299 -37.640625 15.765625 C-37.24875 14.775625 -36.856875 13.785625 -36.453125 12.765625 C-35.793125 12.765625 -35.133125 12.765625 -34.453125 12.765625 C-34.22625 12.20875 -33.999375 11.651875 -33.765625 11.078125 C-30.18600725 4.77117944 -24.36176544 1.305388 -17.59765625 -0.81640625 C-11.8974132 -1.92738258 -5.29833624 -2.6660418 0 0 Z " fill="#F6E6CC" transform="translate(93.453125,43.234375)"/>
<path d="M0 0 C2.01642698 0.99249524 4.00580023 2.00326335 5.96484375 3.10546875 C8.97818685 4.75833219 11.21348903 5.98170905 14.6875 6.0625 C17.79002723 4.63701451 19.6679823 2.45807271 22 0 C22.66 0 23.32 0 24 0 C24 3 24 3 22.5 4.6875 C22.005 5.120625 21.51 5.55375 21 6 C21.66 6 22.32 6 23 6 C22.4121875 7.11375 22.4121875 7.11375 21.8125 8.25 C21.544375 9.1575 21.27625 10.065 21 11 C21.98164306 12.34690559 22.98474139 13.67824823 24 15 C24.94921875 17.578125 24.94921875 17.578125 25.6875 20.25 C25.93886719 21.14203125 26.19023438 22.0340625 26.44921875 22.953125 C26.63097656 23.62859375 26.81273437 24.3040625 27 25 C27.78761719 24.814375 28.57523438 24.62875 29.38671875 24.4375 C32 24 32 24 33.8125 25 C35.67747866 28.14101668 35.42545562 30.41401691 35 34 C32.97333762 37.70390021 31.51955484 39.65363011 28 42 C27.01 42 26.02 42 25 42 C24.79375 42.845625 24.5875 43.69125 24.375 44.5625 C22.69396194 48.76509516 20.33547239 51.93644112 17 55 C16.34 55 15.68 55 15 55 C15 56.65 15 58.3 15 60 C8.76551922 63.59681584 1.97167454 63.12400212 -5 63 C-4.979375 62.05125 -4.95875 61.1025 -4.9375 60.125 C-5.59509703 54.91725578 -9.49508282 51.86992575 -13.06640625 48.33203125 C-15 46 -15 46 -15 42 C-16.11375 41.9071875 -16.11375 41.9071875 -17.25 41.8125 C-20.86782848 40.74359613 -21.93843714 39.09234428 -24 36 C-25.1577506 32.52674819 -25.06866652 29.63932552 -25 26 C-23.9275 25.67 -22.855 25.34 -21.75 25 C-17.65305584 23.27108956 -16.78010393 21.02244012 -15.1015625 17.07421875 C-13.24490375 13.57816983 -10.29367697 11.14170128 -7 9 C-6.34 9 -5.68 9 -5 9 C-4.731875 8.2575 -4.46375 7.515 -4.1875 6.75 C-3.05770579 4.13363446 -1.79106798 2.19812889 0 0 Z " fill="#EAA56D" transform="translate(79,57)"/>
<path d="M0 0 C-1.65 6.93 -3.3 13.86 -5 21 C13.48 21 31.96 21 51 21 C49.35 14.4 47.7 7.8 46 1 C46 0.34 46 -0.32 46 -1 C54.38080535 -0.58095973 62.72838723 1.52178794 69.35546875 6.91796875 C71 9 71 9 71 13 C71.99 13.495 71.99 13.495 73 14 C54.8435152 28.33598199 34.930376 34.19031024 12 32 C-1.89879713 29.86589712 -17.53820127 23.72337189 -27 13 C-26.34 13 -25.68 13 -25 13 C-24.9175 12.2575 -24.835 11.515 -24.75 10.75 C-23.83997396 7.41323787 -22.72201875 6.09984303 -20 4 C-18.68 4 -17.36 4 -16 4 C-16 3.34 -16 2.68 -16 2 C-14.989375 1.87625 -13.97875 1.7525 -12.9375 1.625 C-8.98298715 1.08419641 -8.98298715 1.08419641 -5.1875 -0.125 C-2 -1 -2 -1 0 0 Z " fill="#BD6CB3" transform="translate(61,132)"/>
<path d="M0 0 C0.66 0 1.32 0 2 0 C2 3 2 3 0.5 4.6875 C0.005 5.120625 -0.49 5.55375 -1 6 C-0.34 6 0.32 6 1 6 C0.34 7.65 -0.32 9.3 -1 11 C-0.505 11.495 -0.505 11.495 0 12 C0.04080783 13.99958364 0.04254356 16.00045254 0 18 C-1.65 18.33 -3.3 18.66 -5 19 C-5.16435547 19.95712891 -5.16435547 19.95712891 -5.33203125 20.93359375 C-5.49058594 21.75988281 -5.64914063 22.58617188 -5.8125 23.4375 C-5.96332031 24.26121094 -6.11414063 25.08492187 -6.26953125 25.93359375 C-6.51058594 26.61550781 -6.75164062 27.29742187 -7 28 C-7.99 28.33 -8.98 28.66 -10 29 C-10.66 27.35 -11.32 25.7 -12 24 C-12.66 24.33 -13.32 24.66 -14 25 C-14.46751788 27.35599235 -14.46751788 27.35599235 -14.625 30.0625 C-14.69976562 30.98160156 -14.77453125 31.90070313 -14.8515625 32.84765625 C-14.90054688 33.55792969 -14.94953125 34.26820312 -15 35 C-15.66 35 -16.32 35 -17 35 C-17 35.66 -17 36.32 -17 37 C-18.65 37 -20.3 37 -22 37 C-21.125 31.25 -21.125 31.25 -20 29 C-20.99 29.33 -21.98 29.66 -23 30 C-23.33 28.68 -23.66 27.36 -24 26 C-25.65 26.66 -27.3 27.32 -29 28 C-29.33 27.67 -29.66 27.34 -30 27 C-29.979375 26.030625 -29.95875 25.06125 -29.9375 24.0625 C-29.64862426 20.88968786 -29.64862426 20.88968786 -32 19 C-32.66 18.67 -33.32 18.34 -34 18 C-32.86913662 14.60740986 -31.79067537 13.66962898 -29.125 11.375 C-28.42632812 10.76398438 -27.72765625 10.15296875 -27.0078125 9.5234375 C-25 8 -25 8 -22 7 C-21.67 6.01 -21.34 5.02 -21 4 C-20.26394531 4.15597656 -19.52789062 4.31195313 -18.76953125 4.47265625 C-17.79371094 4.66730469 -16.81789063 4.86195312 -15.8125 5.0625 C-14.84957031 5.25972656 -13.88664062 5.45695312 -12.89453125 5.66015625 C-9.90062539 6.01166746 -7.86921107 5.89480481 -5 5 C-3.29413425 3.37347684 -1.6222454 1.70993434 0 0 Z " fill="#E7A26D" transform="translate(101,57)"/>
<path d="M0 0 C1.2065625 0.0309375 1.2065625 0.0309375 2.4375 0.0625 C1.77784961 6.92286401 0.2012236 13.40693923 -1.5625 20.0625 C-13.04787938 21.09618414 -13.04787938 21.09618414 -18.3125 17.0625 C-19.42036122 16.0897438 -20.51385005 15.09881289 -21.5625 14.0625 C-20.9025 13.7325 -20.2425 13.4025 -19.5625 13.0625 C-19.43875 12.299375 -19.315 11.53625 -19.1875 10.75 C-18.40703547 7.39400252 -17.26926969 6.15057948 -14.5625 4.0625 C-13.2425 4.0625 -11.9225 4.0625 -10.5625 4.0625 C-10.5625 3.4025 -10.5625 2.7425 -10.5625 2.0625 C-8.8609375 1.8459375 -8.8609375 1.8459375 -7.125 1.625 C-3.80350664 1.10055368 -3.09809271 0.07556324 0 0 Z " fill="#E9A471" transform="translate(55.5625,131.9375)"/>
<path d="M0 0 C4.63223933 -0.24889644 7.86459586 0.44123507 12.125 2.25 C13.13820313 2.66765625 14.15140625 3.0853125 15.1953125 3.515625 C18.10627368 5.05624512 19.96695535 6.41248863 22 9 C22 10.32 22 11.64 22 13 C22.66 13.33 23.32 13.66 24 14 C20.57332919 17.38635704 17.68228129 19.79074062 12.796875 20.3984375 C9.84390496 20.37744482 6.94062913 20.26465662 4 20 C3.32749476 17.41806023 2.66182099 14.83467929 2 12.25 C1.71382813 11.15558594 1.71382813 11.15558594 1.421875 10.0390625 C0.53484036 6.55428354 0 3.61876278 0 0 Z " fill="#E8A471" transform="translate(110,132)"/>
<path d="M0 0 C0.66 0.33 1.32 0.66 2 1 C0.35 7.93 -1.3 14.86 -3 22 C15.48 22 33.96 22 53 22 C51.35 15.4 49.7 8.8 48 2 C48 1.34 48 0.68 48 0 C48.99 0.33 49.98 0.66 51 1 C51.88708196 3.81848783 52.58296187 6.49579893 53.1875 9.375 C53.36474609 10.15617188 53.54199219 10.93734375 53.72460938 11.7421875 C54.4301055 14.92372985 55 17.72731576 55 21 C58.3 21 61.6 21 65 21 C62.04725901 23.95274099 60.07049767 25.05166572 56.3125 26.6875 C54.82169922 27.34298828 54.82169922 27.34298828 53.30078125 28.01171875 C52.54152344 28.33785156 51.78226562 28.66398437 51 29 C50.505 28.01 50.505 28.01 50 27 C50.495 25.515 50.495 25.515 51 24 C50.34045319 24.00222061 49.68090637 24.00444122 49.00137329 24.00672913 C42.15619446 24.02879894 35.31102568 24.04391373 28.46582031 24.05493164 C25.90884999 24.05997017 23.35188257 24.06680107 20.79492188 24.07543945 C17.12629483 24.08752602 13.45770577 24.09323301 9.7890625 24.09765625 C8.64007477 24.10281754 7.49108704 24.10797882 6.30728149 24.11329651 C5.2463327 24.11337204 4.18538391 24.11344757 3.09228516 24.11352539 C1.68663803 24.11685631 1.68663803 24.11685631 0.25259399 24.12025452 C-2 24 -2 24 -4 23 C-6.0374763 22.77141886 -8.08040303 22.58975722 -10.125 22.4375 C-11.76855469 22.31181641 -11.76855469 22.31181641 -13.4453125 22.18359375 C-14.70988281 22.09271484 -14.70988281 22.09271484 -16 22 C-16 21.67 -16 21.34 -16 21 C-12.37 21 -8.74 21 -5 21 C-4.731875 19.205625 -4.46375 17.41125 -4.1875 15.5625 C-3.28875272 10.11182405 -1.89936906 5.18009744 0 0 Z " fill="#B96E90" transform="translate(59,131)"/>
<path d="M0 0 C2.91945614 0.09571987 5.2336505 0.19863685 8 1 C12.56346193 6.66498722 14 16.84991866 14 24 C-4.48 24 -22.96 24 -42 24 C-41.30778317 17.77004856 -40.5972643 12.85663575 -39 7 C-37.0549 9.91765 -36.54723683 11.62537285 -36 15 C-36.99 15 -37.98 15 -39 15 C-39.33 17.31 -39.66 19.62 -40 22 C-23.17 22 -6.34 22 11 22 C10.34 18.7 9.68 15.4 9 12 C8.92932537 9.66773725 8.89864648 7.33113104 9 5 C8.34 5 7.68 5 7 5 C6.505 4.01 6.505 4.01 6 3 C4.02111039 2.27306096 2.02045442 1.60183749 0 1 C0 0.67 0 0.34 0 0 Z " fill="#E69E88" transform="translate(98,129)"/>
<path d="M0 0 C0.33 0 0.66 0 1 0 C1.13277344 0.92683594 1.26554687 1.85367188 1.40234375 2.80859375 C1.57894531 4.00613281 1.75554688 5.20367187 1.9375 6.4375 C2.11152344 7.63246094 2.28554688 8.82742187 2.46484375 10.05859375 C2.68985213 12.87955676 2.68985213 12.87955676 4 14 C7.704308 14.45026829 11.40763592 14.81946923 15.12304688 15.16210938 C19.67705446 15.62011668 23.692608 16.33688742 28 18 C27.59316505 20.35964273 27.10185661 21.85934088 25.6875 23.8125 C24 25 24 25 21.8125 24.6875 C21.214375 24.460625 20.61625 24.23375 20 24 C20.66 23.34 21.32 22.68 22 22 C22.99 22 23.98 22 25 22 C25 21.01 25 20.02 25 19 C23.35 19 21.7 19 20 19 C20 18.34 20 17.68 20 17 C18.89140625 17.04640625 17.7828125 17.0928125 16.640625 17.140625 C15.17711032 17.17815102 13.71356644 17.21455029 12.25 17.25 C11.52039062 17.28351563 10.79078125 17.31703125 10.0390625 17.3515625 C6.62011776 17.41372513 4.41251582 17.26297884 1.5 15.40625 C-0.50266203 12.19364632 -0.40025126 10.00628139 -0.25 6.25 C-0.21390625 5.07953125 -0.1778125 3.9090625 -0.140625 2.703125 C-0.09421875 1.81109375 -0.0478125 0.9190625 0 0 Z " fill="#BFC4E1" transform="translate(44,104)"/>
<path d="M0 0 C1.2375 0.2475 1.2375 0.2475 2.5 0.5 C8.50470492 1.35781499 14.03731689 1.19253662 20 0 C20 0.99 20 1.98 20 3 C13.76551922 6.59681584 6.97167454 6.12400212 0 6 C0 4.02 0 2.04 0 0 Z " fill="#D68E50" transform="translate(74,114)"/>
<path d="M0 0 C0 0.66 0 1.32 0 2 C0.99 2 1.98 2 3 2 C3.309375 2.78375 3.61875 3.5675 3.9375 4.375 C4.92875038 6.92330128 4.92875038 6.92330128 6 9 C3.01127512 7.65278485 0.9595068 6.08515771 -1.4375 3.875 C-6.04577989 0.37373707 -10.07677487 0.26822996 -15.73828125 0.53125 C-20.56812807 1.22535972 -24.66520111 2.81264292 -29 5 C-29.75152344 5.37382813 -30.50304687 5.74765625 -31.27734375 6.1328125 C-31.84582031 6.41898438 -32.41429688 6.70515625 -33 7 C-31.24973175 2.76204083 -29.18450184 1.67260895 -25.14453125 -0.18359375 C-16.83242409 -3.34794784 -8.30320367 -2.3723439 0 0 Z " fill="#BFC3E3" transform="translate(97,42)"/>
<path d="M0 0 C0.33 0 0.66 0 1 0 C1.08120751 2.89640118 1.14059421 5.79050912 1.1875 8.6875 C1.21263672 9.50412109 1.23777344 10.32074219 1.26367188 11.16210938 C1.32147401 15.92115215 1.22993857 19.22356423 -2 23 C-6.42501409 26.77501202 -11.26212046 26.54263551 -16.8125 26.6875 C-18.13797852 26.73874023 -18.13797852 26.73874023 -19.49023438 26.79101562 C-21.65972167 26.87310433 -23.8298389 26.93823879 -26 27 C-23.6362102 24.26254959 -23.15964704 24.02063235 -19.3125 23.5234375 C-17.87555677 23.45980902 -16.43790521 23.4108197 -15 23.375 C-9.42111551 23.23083234 -9.42111551 23.23083234 -4 22 C-2.25681229 19.278818 -1.68584745 16.85847447 -1.3671875 13.671875 C-1.28339844 12.87265625 -1.19960937 12.0734375 -1.11328125 11.25 C-0.99533203 10.0125 -0.99533203 10.0125 -0.875 8.75 C-0.78863281 7.90953125 -0.70226562 7.0690625 -0.61328125 6.203125 C-0.40188278 4.13611777 -0.20000538 2.06814072 0 0 Z " fill="#E9E5E0" transform="translate(124,93)"/>
<path d="M0 0 C2.88437779 1.29299694 4.87219421 2.65941363 7 5 C6.113125 4.896875 5.22625 4.79375 4.3125 4.6875 C-0.12408589 5.10604584 -1.06998382 6.71266477 -4 10 C-5.19683806 11.0137298 -6.40574329 12.01334782 -7.625 13 C-10.45222535 15.37757949 -12.32885658 17.65771317 -14 21 C-14.66 20.67 -15.32 20.34 -16 20 C-14.63560848 14.84563204 -11.27426385 11.93351599 -7 9 C-6.34 9 -5.68 9 -5 9 C-4.731875 8.2575 -4.46375 7.515 -4.1875 6.75 C-3.05770579 4.13363446 -1.79106798 2.19812889 0 0 Z " fill="#E6AC7A" transform="translate(79,57)"/>
<path d="M0 0 C-0.845625 0.37125 -1.69125 0.7425 -2.5625 1.125 C-5.96005975 2.97821441 -8.46696921 4.99417582 -11.2890625 7.59765625 C-13 9 -13 9 -15.046875 9.8828125 C-17.70006647 11.40043802 -18.34810958 13.06512609 -19.625 15.8125 C-20.02976562 16.66457031 -20.43453125 17.51664063 -20.8515625 18.39453125 C-21.95997383 20.90919234 -22.9984851 23.44108348 -24 26 C-25.37095624 22.30962722 -24.60010967 20.29116165 -23.0625 16.75 C-22.68222656 15.85796875 -22.30195312 14.9659375 -21.91015625 14.046875 C-21.60980469 13.37140625 -21.30945312 12.6959375 -21 12 C-20.34 12 -19.68 12 -19 12 C-18.773125 11.443125 -18.54625 10.88625 -18.3125 10.3125 C-14.82347872 4.1651768 -7.41121018 -2.54192955 0 0 Z " fill="#EBE4DE" transform="translate(78,44)"/>
<path d="M0 0 C0.33 0 0.66 0 1 0 C0.98952637 0.55461914 0.97905273 1.10923828 0.96826172 1.68066406 C0.92657996 4.20372959 0.90063562 6.72672253 0.875 9.25 C0.85824219 10.12269531 0.84148438 10.99539062 0.82421875 11.89453125 C0.81777344 12.73886719 0.81132813 13.58320312 0.8046875 14.453125 C0.79421387 15.22817383 0.78374023 16.00322266 0.77294922 16.80175781 C1.02673444 19.25883539 1.77555848 20.87311542 3 23 C3.64066406 22.97679688 4.28132813 22.95359375 4.94140625 22.9296875 C10.40987096 22.81559137 14.83098277 23.20208096 20 25 C20 25.33 20 25.66 20 26 C17.05943386 25.96702729 14.12652037 25.89993081 11.1875 25.8125 C10.35412109 25.80669922 9.52074219 25.80089844 8.66210938 25.79492188 C2.55841223 25.57430632 2.55841223 25.57430632 -0.05859375 22.8828125 C-1.17926132 19.4510587 -1.32836642 16.67127386 -1.25 13.0625 C-1.23453125 11.87785156 -1.2190625 10.69320312 -1.203125 9.47265625 C-1.01431491 6.24472988 -0.60093909 3.17431534 0 0 Z " fill="#EEE5DF" transform="translate(46,94)"/>
<path d="M0 0 C0.66 0 1.32 0 2 0 C2.33 1.32 2.66 2.64 3 4 C3.66 4 4.32 4 5 4 C6.09658936 7.28976808 5.79953138 8.71303767 5 12 C4.34 12 3.68 12 3 12 C3 12.66 3 13.32 3 14 C1.35 14 -0.3 14 -2 14 C-1.34 9.38 -0.68 4.76 0 0 Z " fill="#E39D62" transform="translate(81,80)"/>
<path d="M0 0 C0.69738281 0.00451172 1.39476563 0.00902344 2.11328125 0.01367188 C3.82555803 0.0253998 5.53779033 0.04333347 7.25 0.0625 C7.25 0.7225 7.25 1.3825 7.25 2.0625 C1.31 2.0625 -4.63 2.0625 -10.75 2.0625 C-10.75 3.7125 -10.75 5.3625 -10.75 7.0625 C-7.09920174 8.67314629 -3.6992568 9.51144091 0.25 10.0625 C0.25 10.7225 0.25 11.3825 0.25 12.0625 C-1.3766848 11.78038123 -3.00132896 11.48647625 -4.625 11.1875 C-5.52992187 11.02507812 -6.43484375 10.86265625 -7.3671875 10.6953125 C-9.75 10.0625 -9.75 10.0625 -11.75 8.0625 C-11.875 4.4375 -11.875 4.4375 -11.75 1.0625 C-7.88276369 -0.20332219 -4.01848738 -0.0493765 0 0 Z " fill="#C0C1DE" transform="translate(107.75,118.9375)"/>
<path d="M0 0 C1.60379341 -0.05416188 3.20811406 -0.09286638 4.8125 -0.125 C5.70582031 -0.14820313 6.59914063 -0.17140625 7.51953125 -0.1953125 C10 0 10 0 13 2 C13.33 2.99 13.66 3.98 14 5 C15.65 5.33 17.3 5.66 19 6 C19 6.66 19 7.32 19 8 C11.86631465 7.26833996 5.58955023 4.42611444 0 0 Z " fill="#B570AD" transform="translate(45,153)"/>
<path d="M0 0 C4.79077635 -0.28773432 8.00617556 0.55830025 12.375 2.5 C13.43460938 2.9640625 14.49421875 3.428125 15.5859375 3.90625 C16.38257812 4.2671875 17.17921875 4.628125 18 5 C18 5.33 18 5.66 18 6 C7.44191344 5.03644647 7.44191344 5.03644647 3 4 C3 6.64 3 9.28 3 12 C0.97649676 8.96474514 0.67875982 7.80573798 0.375 4.3125 C0.30023438 3.50425781 0.22546875 2.69601563 0.1484375 1.86328125 C0.09945312 1.24839844 0.05046875 0.63351563 0 0 Z " fill="#DDA68B" transform="translate(110,132)"/>
<path d="M0 0 C6.17286108 -0.33068899 10.35885232 0.59278612 16 3 C17.3303125 3.37125 17.3303125 3.37125 18.6875 3.75 C22.15070519 5.6220028 24.10948853 8.58903462 26 12 C26 12.66 26 13.32 26 14 C25.01 14 24.02 14 23 14 C22.7525 13.236875 22.505 12.47375 22.25 11.6875 C19.77946638 6.37585271 14.73855871 4.86518871 9.55078125 2.8515625 C6.33255521 1.7771777 3.37320952 1.29332257 0 1 C0 0.67 0 0.34 0 0 Z " fill="#BDBAD8" transform="translate(109,131)"/>
<path d="M0 0 C0.99 0.33 1.98 0.66 3 1 C3.88708196 3.81848783 4.58296187 6.49579893 5.1875 9.375 C5.36474609 10.15617188 5.54199219 10.93734375 5.72460938 11.7421875 C6.4301055 14.92372985 7 17.72731576 7 21 C6.34 21 5.68 21 5 21 C4.16267257 17.87605609 3.33082018 14.75068026 2.5 11.625 C2.26152344 10.73554688 2.02304688 9.84609375 1.77734375 8.9296875 C1.55175781 8.07890625 1.32617188 7.228125 1.09375 6.3515625 C0.88427734 5.56604004 0.67480469 4.78051758 0.45898438 3.97119141 C0 2 0 2 0 0 Z " fill="#AA6476" transform="translate(107,131)"/>
<path d="M0 0 C0 3 0 3 -1.5 4.6875 C-1.995 5.120625 -2.49 5.55375 -3 6 C-2.34 6 -1.68 6 -1 6 C-1.350625 6.7425 -1.70125 7.485 -2.0625 8.25 C-3.04509293 11.1322726 -3.0326802 12.21176345 -2 15 C-5 14 -5 14 -6.1875 12.25 C-7.17978008 9.50214747 -7.4951567 7.9002035 -7 5 C-2.77777778 0 -2.77777778 0 0 0 Z " fill="#D29B8A" transform="translate(103,57)"/>
<path d="M0 0 C2.97 0 5.94 0 9 0 C9 0.33 9 0.66 9 1 C4.126739 2.5912689 0.19209404 3.21192221 -5 3 C-5 3.66 -5 4.32 -5 5 C-5.763125 5.268125 -6.52625 5.53625 -7.3125 5.8125 C-9.93603434 6.9717361 -11.27119728 7.75255646 -13 10 C-13.71447643 12.10332891 -13.71447643 12.10332891 -14 14 C-14.66 13.67 -15.32 13.34 -16 13 C-14.76344399 9.57569106 -13.59887381 6.59887381 -11 4 C-8.3125 3.75 -8.3125 3.75 -6 4 C-6 3.34 -6 2.68 -6 2 C-4.02 2 -2.04 2 0 2 C0 1.34 0 0.68 0 0 Z " fill="#C3B7CF" transform="translate(50,131)"/>
<path d="M0 0 C1.98 0 3.96 0 6 0 C5.01 0.33 4.02 0.66 3 1 C3 1.66 3 2.32 3 3 C4.32 3.66 5.64 4.32 7 5 C6.34 5 5.68 5 5 5 C5 6.65 5 8.3 5 10 C3.68 10 2.36 10 1 10 C0.67 6.7 0.34 3.4 0 0 Z " fill="#A6694B" transform="translate(70,74)"/>
<path d="M0 0 C3.5045275 0.97347986 4.88857413 1.85992177 7.1875 4.75 C11.36782538 12.24575586 11.36782538 12.24575586 10.54296875 16.1796875 C10.27419922 17.08074219 10.27419922 17.08074219 10 18 C8.99267601 16.06629769 7.99436712 14.12789694 7 12.1875 C6.443125 11.10855469 5.88625 10.02960938 5.3125 8.91796875 C4 6 4 6 4 3 C2.68 2.34 1.36 1.68 0 1 C0 0.67 0 0.34 0 0 Z " fill="#BBC1E3" transform="translate(108,54)"/>
<path d="M0 0 C-0.33 1.65 -0.66 3.3 -1 5 C-7.96428571 7.27678571 -7.96428571 7.27678571 -12 6 C-10.37829621 4.99466333 -8.75252763 3.99588093 -7.125 3 C-5.76761719 2.1646875 -5.76761719 2.1646875 -4.3828125 1.3125 C-2 0 -2 0 0 0 Z " fill="#B3BBE7" transform="translate(54,16)"/>
<path d="M0 0 C0.33 0.66 0.66 1.32 1 2 C0.01 3.485 0.01 3.485 -1 5 C-1.99 5 -2.98 5 -4 5 C-4 5.99 -4 6.98 -4 8 C-4.99 8 -5.98 8 -7 8 C-7.28875 8.639375 -7.5775 9.27875 -7.875 9.9375 C-9 12 -9 12 -11 13 C-8.43726236 4.76262901 -8.43726236 4.76262901 -3.9375 2.375 C-2.968125 1.92125 -1.99875 1.4675 -1 1 C-0.67 0.67 -0.34 0.34 0 0 Z " fill="#FBDFBC" transform="translate(111,95)"/>
<path d="M0 0 C0.33 0 0.66 0 1 0 C1 3.63 1 7.26 1 11 C0.34 11 -0.32 11 -1 11 C-1 12.65 -1 14.3 -1 16 C-1.66 16.33 -2.32 16.66 -3 17 C-2.22095672 5.47835991 -2.22095672 5.47835991 0 0 Z " fill="#EEE5DA" transform="translate(50,77)"/>
<path d="M0 0 C0.99 0.33 1.98 0.66 3 1 C1.71937515 2.7074998 0.38232443 4.37373596 -1 6 C-1.66 6 -2.32 6 -3 6 C-3.19335938 6.67546875 -3.38671875 7.3509375 -3.5859375 8.046875 C-3.97652344 9.38492188 -3.97652344 9.38492188 -4.375 10.75 C-4.75785156 12.07257812 -4.75785156 12.07257812 -5.1484375 13.421875 C-5.9209934 15.76080572 -6.83625676 17.83442562 -8 20 C-7.5887581 12.59764573 -5.36444702 5.36444702 0 0 Z " fill="#BDC2E0" transform="translate(60,50)"/>
<path d="M0 0 C0.66 0 1.32 0 2 0 C2 1.32 2 2.64 2 4 C1.34 4 0.68 4 0 4 C0 6.31 0 8.62 0 11 C-2 9.25 -2 9.25 -4 7 C-4 5.68 -4 4.36 -4 3 C-3.01 3 -2.02 3 -1 3 C-0.67 2.01 -0.34 1.02 0 0 Z " fill="#E6AB79" transform="translate(68,96)"/>
<path d="M0 0 C0.33 0.99 0.66 1.98 1 3 C-0.2065625 4.175625 -0.2065625 4.175625 -1.4375 5.375 C-3.98690417 7.71982856 -3.98690417 7.71982856 -5 10 C-6.65 10 -8.3 10 -10 10 C-3.84965831 2.51708428 -3.84965831 2.51708428 0 0 Z " fill="#B1B9E5" transform="translate(36,26)"/>
<path d="M0 0 C0 1.98 0 3.96 0 6 C-2.31 6.66 -4.62 7.32 -7 8 C-6.65548076 4.78448712 -5.97711248 3.97940123 -3.5 1.75 C-1 0 -1 0 0 0 Z " fill="#E59C63" transform="translate(113,84)"/>
<path d="M0 0 C0.66 0.33 1.32 0.66 2 1 C2 2.98 2 4.96 2 7 C4.97 7.495 4.97 7.495 8 8 C8 8.99 8 9.98 8 11 C7.38125 10.835 6.7625 10.67 6.125 10.5 C4.03936614 9.92365356 4.03936614 9.92365356 2 10 C1.01 7.03 0.02 4.06 -1 1 C-0.67 0.67 -0.34 0.34 0 0 Z " fill="#FCDDBC" transform="translate(104,72)"/>
<path d="M0 0 C0 2.31 0 4.62 0 7 C-1.32 7.33 -2.64 7.66 -4 8 C-3.34 6.68 -2.68 5.36 -2 4 C-4.475 5.485 -4.475 5.485 -7 7 C-5.80061288 4.10148113 -3.63852862 0 0 0 Z " fill="#F6CDD5" transform="translate(104,59)"/>
<path d="M0 0 C1.2065625 0.0309375 1.2065625 0.0309375 2.4375 0.0625 C1.58035714 8.63392857 1.58035714 8.63392857 -0.5625 12.0625 C-0.6875 4.3125 -0.6875 4.3125 0.4375 2.0625 C-0.8825 1.7325 -2.2025 1.4025 -3.5625 1.0625 C-2.5625 0.0625 -2.5625 0.0625 0 0 Z " fill="#E0A28B" transform="translate(55.5625,131.9375)"/>
<path d="M0 0 C0.33 0 0.66 0 1 0 C0.03644647 11.52164009 0.03644647 11.52164009 -1 17 C-1.33 17 -1.66 17 -2 17 C-2 12.38 -2 7.76 -2 3 C-1.34 3 -0.68 3 0 3 C0 2.01 0 1.02 0 0 Z " fill="#C1C5E3" transform="translate(47,83)"/>
<path d="M0 0 C-0.33 0.66 -0.66 1.32 -1 2 C-1.66 1.67 -2.32 1.34 -3 1 C-3.4021875 1.8353125 -3.4021875 1.8353125 -3.8125 2.6875 C-5.10899496 5.21225334 -6.42476323 7.63714484 -8 10 C-8.66 10 -9.32 10 -10 10 C-9.67 8.68 -9.34 7.36 -9 6 C-8.34 6 -7.68 6 -7 6 C-7.33 5.01 -7.66 4.02 -8 3 C-4.93882432 0.37613513 -4.26826873 0 0 0 Z " fill="#F9DDB9" transform="translate(82,56)"/>
<path d="M0 0 C0.66 0.66 1.32 1.32 2 2 C1.67 2.99 1.34 3.98 1 5 C-1.06640625 5.73046875 -1.06640625 5.73046875 -3.5625 6.1875 C-4.38878906 6.34605469 -5.21507812 6.50460938 -6.06640625 6.66796875 C-7.02353516 6.83232422 -7.02353516 6.83232422 -8 7 C-7.67 6.01 -7.34 5.02 -7 4 C-5.01276732 3.29618843 -3.01222047 2.6288189 -1 2 C-0.67 1.34 -0.34 0.68 0 0 Z " fill="#E6AF82" transform="translate(62,78)"/>
<path d="M0 0 C1.65 0 3.3 0 5 0 C5.33 0.66 5.66 1.32 6 2 C8.02463255 2.65213292 8.02463255 2.65213292 10 3 C10 3.66 10 4.32 10 5 C10.99 5.33 11.98 5.66 13 6 C7.57689095 5.56615128 4.29855944 4.35497322 0 1 C0 0.67 0 0.34 0 0 Z " fill="#FADAB8" transform="translate(82,58)"/>
<path d="M0 0 C5.29114824 0.17348027 5.29114824 0.17348027 8 1 C10.17574437 3.96692415 11.17327123 5.68313868 10.6875 9.375 C10.460625 9.91125 10.23375 10.4475 10 11 C9.67 9.02 9.34 7.04 9 5 C8.34 5 7.68 5 7 5 C6.67 4.34 6.34 3.68 6 3 C4.02111039 2.27306096 2.02045442 1.60183749 0 1 C0 0.67 0 0.34 0 0 Z " fill="#DE9F8B" transform="translate(98,129)"/>
<path d="M0 0 C0.66 0 1.32 0 2 0 C1.59316505 2.35964273 1.10185661 3.85934088 -0.3125 5.8125 C-2 7 -2 7 -4.1875 6.6875 C-4.785625 6.460625 -5.38375 6.23375 -6 6 C-5.34 5.34 -4.68 4.68 -4 4 C-3.01 4 -2.02 4 -1 4 C-0.67 2.68 -0.34 1.36 0 0 Z " fill="#BFB9DF" transform="translate(70,122)"/>
<path d="M0 0 C1.32 0.33 2.64 0.66 4 1 C3.67 1.66 3.34 2.32 3 3 C0.67684969 3.7013284 -1.65789079 4.36485174 -4 5 C-5.35350594 5.62469505 -6.69934483 6.2716331 -8 7 C-6.25 4.5 -6.25 4.5 -4 2 C-2.68 2 -1.36 2 0 2 C0 1.34 0 0.68 0 0 Z " fill="#D7AC94" transform="translate(45,134)"/>
<path d="M0 0 C1.299375 0.7115625 1.299375 0.7115625 2.625 1.4375 C5.85387374 2.93234895 8.49033826 3.58218313 12 4 C12 4.66 12 5.32 12 6 C10.37181054 5.77169299 8.7473651 5.51656424 7.125 5.25 C6.22007813 5.11078125 5.31515625 4.9715625 4.3828125 4.828125 C2 4 2 4 0.6796875 1.921875 C0.45539063 1.28765625 0.23109375 0.6534375 0 0 Z " fill="#C5B8C9" transform="translate(96,125)"/>
<path d="M0 0 C3.20878901 3.90329402 3.94276458 7.12045189 5 12 C3.046875 11.3203125 3.046875 11.3203125 1 10 C0.390625 7.6171875 0.390625 7.6171875 0.25 4.875 C0.19328125 3.96492188 0.1365625 3.05484375 0.078125 2.1171875 C0.05234375 1.41851562 0.0265625 0.71984375 0 0 Z " fill="#E0A884" transform="translate(93,117)"/>
<path d="M0 0 C2.74792483 3.40219265 6 7.48464588 6 12 C5.01 12 4.02 12 3 12 C1.82923301 8.01939223 0.74250597 4.08378283 0 0 Z " fill="#E6E2E1" transform="translate(114,64)"/>
<path d="M0 0 C0 0.99 0 1.98 0 3 C-1.53125 4.38671875 -1.53125 4.38671875 -3.5 5.6875 C-4.47453125 6.34298828 -4.47453125 6.34298828 -5.46875 7.01171875 C-5.9740625 7.33785156 -6.479375 7.66398437 -7 8 C-6.21275747 4.13683048 -4.4911131 0 0 0 Z " fill="#B782A3" transform="translate(103,57)"/>
<path d="M0 0 C1.32 0 2.64 0 4 0 C4 1.98 4 3.96 4 6 C3.01 6.33 2.02 6.66 1 7 C0.67 4.69 0.34 2.38 0 0 Z " fill="#854F3F" transform="translate(90,79)"/>
<path d="M0 0 C2.64752004 2.57784846 4.94432065 4.91648098 7 8 C5.68 8 4.36 8 3 8 C0 2.25 0 2.25 0 0 Z " fill="#FADCB9" transform="translate(65,104)"/>
<path d="M0 0 C0.33 0 0.66 0 1 0 C1.36923077 6.4 1.36923077 6.4 -0.5 9.4375 C-0.995 9.953125 -1.49 10.46875 -2 11 C-2.33 9.35 -2.66 7.7 -3 6 C-2.34 5.67 -1.68 5.34 -1 5 C-0.34444881 2.47266765 -0.34444881 2.47266765 0 0 Z " fill="#E3AA77" transform="translate(113,84)"/>
<path d="M0 0 C3.91211733 1.15585285 6.8745041 2.35534962 10 5 C7.36 5 4.72 5 2 5 C1.34 3.35 0.68 1.7 0 0 Z " fill="#AFBAE6" transform="translate(111,15)"/>
<path d="M0 0 C3.35620271 1.38877354 5.07298728 2.91677965 7 6 C7 6.66 7 7.32 7 8 C6.01 8 5.02 8 4 8 C3.71125 7.236875 3.4225 6.47375 3.125 5.6875 C2.03730987 2.84970692 2.03730987 2.84970692 0 0 Z " fill="#C1B7CB" transform="translate(128,137)"/>
<path d="M0 0 C0.66 0 1.32 0 2 0 C3.32421875 1.6796875 3.32421875 1.6796875 4.6875 3.875 C5.14511719 4.59429687 5.60273438 5.31359375 6.07421875 6.0546875 C6.37972656 6.69664062 6.68523438 7.33859375 7 8 C6.67 8.66 6.34 9.32 6 10 C4.99723227 8.52270825 3.99785546 7.04311423 3 5.5625 C2.443125 4.73878906 1.88625 3.91507812 1.3125 3.06640625 C0 1 0 1 0 0 Z " fill="#ACB3E4" transform="translate(16,123)"/>
<path d="M0 0 C0.66 0 1.32 0 2 0 C2 3.63 2 7.26 2 11 C1.01 11.33 0.02 11.66 -1 12 C-0.7525 11.2575 -0.7525 11.2575 -0.5 10.5 C0.20688818 6.96555911 0.06005155 3.60309299 0 0 Z " fill="#F8D8B7" transform="translate(113,83)"/>
<path d="M0 0 C0.66 0 1.32 0 2 0 C0.66666667 3.33333333 -0.66666667 6.66666667 -2 10 C-2.6875 8.375 -2.6875 8.375 -3 6 C-1.5625 2.75 -1.5625 2.75 0 0 Z " fill="#EBE7DE" transform="translate(56,60)"/>
<path d="M0 0 C0.33 0.99 0.66 1.98 1 3 C0.34 3.66 -0.32 4.32 -1 5 C-1.64767793 7.57061311 -1.64767793 7.57061311 -2 10 C-2.33 10 -2.66 10 -3 10 C-3.29296875 3.9453125 -3.29296875 3.9453125 -3 2 C-2.01 1.34 -1.02 0.68 0 0 Z " fill="#F7DBB8" transform="translate(97,110)"/>
</svg>
