<?xml version="1.0" standalone="no"?>
<!DOCTYPE svg PUBLIC "-//W3C//DTD SVG 20010904//EN"
 "http://www.w3.org/TR/2001/REC-SVG-20010904/DTD/svg10.dtd">
<svg version="1.0" xmlns="http://www.w3.org/2000/svg"
 width="1360.000000pt" height="1360.000000pt" viewBox="0 0 1360.000000 1360.000000"
 preserveAspectRatio="xMidYMid meet">

<g transform="translate(0.000000,1360.000000) scale(0.100000,-0.100000)"
fill="#000000" stroke="none">
<path d="M6435 10619 c-521 -24 -1047 -111 -1535 -253 -1409 -409 -2668 -1261
-3696 -2501 -216 -261 -543 -713 -613 -849 -34 -66 -36 -73 -36 -171 0 -98 2
-105 36 -171 99 -190 541 -781 800 -1069 484 -538 950 -953 1480 -1317 909
-625 1933 -1026 2973 -1164 568 -75 1078 -79 1652 -14 1177 134 2315 594 3324
1343 727 540 1392 1240 1925 2026 141 207 164 258 165 357 0 113 -19 158 -154
358 -423 627 -935 1207 -1491 1687 -886 765 -1924 1306 -3000 1564 -401 96
-813 153 -1270 175 -231 11 -307 11 -560 -1z m650 -769 c1167 -74 2296 -497
3280 -1230 608 -452 1213 -1076 1650 -1699 l55 -79 -69 -95 c-661 -908 -1425
-1610 -2301 -2114 -107 -62 -457 -240 -565 -288 -766 -340 -1582 -515 -2405
-515 -927 0 -1800 210 -2657 638 -120 60 -263 135 -318 167 -866 500 -1635
1205 -2277 2088 l-87 120 57 81 c391 556 913 1112 1443 1537 400 322 783 565
1244 790 635 310 1269 497 1950 574 302 34 700 44 1000 25z"/>
<path d="M6490 8960 c-483 -59 -917 -269 -1260 -610 -646 -642 -811 -1617
-410 -2436 110 -225 241 -408 419 -584 402 -395 926 -610 1491 -610 1020 0
1888 714 2089 1719 147 732 -126 1525 -693 2010 -310 265 -636 420 -1034 492
-133 24 -472 34 -602 19z m371 -760 c196 -20 369 -76 539 -173 117 -66 190
-121 291 -222 190 -188 317 -423 376 -698 25 -117 25 -409 0 -527 -119 -554
-539 -968 -1093 -1076 -120 -24 -366 -24 -488 0 -367 71 -687 283 -891 591
-91 138 -145 263 -192 445 -25 96 -28 121 -28 295 0 145 4 209 18 272 65 301
220 568 441 762 283 247 657 368 1027 331z"/>
</g>
</svg>
