<?xml version="1.0" encoding="UTF-8"?>
<svg version="1.1" xmlns="http://www.w3.org/2000/svg" width="512" height="512">
<path d="M0 0 C1.01790619 0.00215515 2.03581238 0.0043103 3.08456421 0.00653076 C17.69363523 0.05620146 32.02575853 0.30709809 46.375 3.3125 C47.34985352 3.51117676 48.32470703 3.70985352 49.32910156 3.91455078 C97.7109774 14.03517194 141.69928269 35.9516877 177.375 70.3125 C178.3640332 71.26068604 178.3640332 71.26068604 179.37304688 72.22802734 C188.86130305 81.37247479 197.6012044 90.66984009 205.375 101.3125 C206.23306152 102.46355017 207.09113451 103.61459177 207.94921875 104.765625 C213.98736829 112.95680614 219.34595521 121.47054105 224.375 130.3125 C224.73948242 130.94430176 225.10396484 131.57610352 225.47949219 132.22705078 C247.08534998 169.97532572 256.85198095 212.74189997 256.6875 255.9375 C256.68534485 256.95540619 256.6831897 257.97331238 256.68096924 259.02206421 C256.63129854 273.63113523 256.38040191 287.96325853 253.375 302.3125 C253.07698486 303.77478027 253.07698486 303.77478027 252.77294922 305.26660156 C242.65232806 353.6484774 220.7358123 397.63678269 186.375 433.3125 C185.74287598 433.97185547 185.11075195 434.63121094 184.45947266 435.31054688 C175.31502521 444.79880305 166.01765991 453.5387044 155.375 461.3125 C154.22394983 462.17056152 153.07290823 463.02863451 151.921875 463.88671875 C143.73224019 469.92427396 135.22961724 475.30707302 126.375 480.3125 C125.66778809 480.7146875 124.96057617 481.116875 124.23193359 481.53125 C101.09654164 494.5566741 75.92537591 503.30551461 49.9375 508.625 C49.21860596 508.77235596 48.49971191 508.91971191 47.7590332 509.0715332 C32.11274391 512.04539088 16.63931954 512.68550362 0.75 512.625 C-0.77685928 512.62176727 -0.77685928 512.62176727 -2.33456421 512.61846924 C-16.94363523 512.56879854 -31.27575853 512.31790191 -45.625 509.3125 C-47.08728027 509.01448486 -47.08728027 509.01448486 -48.57910156 508.71044922 C-91.84881524 499.65920074 -132.05019334 481.27479329 -165.625 452.3125 C-166.37007813 451.67828125 -167.11515625 451.0440625 -167.8828125 450.390625 C-181.38779833 438.57948485 -194.05918743 425.82889772 -204.625 411.3125 C-205.48149066 410.16255169 -206.33826433 409.01281411 -207.1953125 407.86328125 C-213.23534209 399.67315742 -218.61867614 391.16870382 -223.625 382.3125 C-224.0271875 381.60528809 -224.429375 380.89807617 -224.84375 380.16943359 C-237.8691741 357.03404164 -246.61801461 331.86287591 -251.9375 305.875 C-252.08485596 305.15610596 -252.23221191 304.43721191 -252.3840332 303.6965332 C-255.35789088 288.05024391 -255.99800362 272.57681954 -255.9375 256.6875 C-255.93534485 255.66959381 -255.9331897 254.65168762 -255.93096924 253.60293579 C-255.88129854 238.99386477 -255.63040191 224.66174147 -252.625 210.3125 C-252.42632324 209.33764648 -252.22764648 208.36279297 -252.02294922 207.35839844 C-241.90232806 158.9765226 -219.9858123 114.98821731 -185.625 79.3125 C-184.99287598 78.65314453 -184.36075195 77.99378906 -183.70947266 77.31445312 C-174.56502521 67.82619695 -165.26765991 59.0862956 -154.625 51.3125 C-153.47394983 50.45443848 -152.32290823 49.59636549 -151.171875 48.73828125 C-142.98224019 42.70072604 -134.47961724 37.31792698 -125.625 32.3125 C-124.91778809 31.9103125 -124.21057617 31.508125 -123.48193359 31.09375 C-100.34654164 18.0683259 -75.17537591 9.31948539 -49.1875 4 C-48.46860596 3.85264404 -47.74971191 3.70528809 -47.0090332 3.5534668 C-31.36274391 0.57960912 -15.88931954 -0.06050362 0 0 Z " fill="#E55134" transform="translate(255.625,-0.3125)"/>
<path d="M0 0 C0.66 0 1.32 0 2 0 C2.36351562 0.96679688 2.72703125 1.93359375 3.1015625 2.9296875 C9.00726465 19.18739549 9.00726465 19.18739549 21 31 C24.94288641 32.66043326 28.9587225 34.02645344 33.02490234 35.35253906 C43.31451163 38.72559763 52.47451234 42.09766434 61 49 C61.83273437 49.63550781 62.66546875 50.27101562 63.5234375 50.92578125 C74.17238672 59.84469613 82.05105569 74.4691858 85 88 C85.10827721 89.4547027 85.17647531 90.91277408 85.2109375 92.37109375 C85.23929687 93.19287109 85.26765625 94.01464844 85.296875 94.86132812 C85.34883333 96.57465392 85.39314198 98.28822929 85.4296875 100.00195312 C85.60851245 104.75944181 85.84559565 108.18537148 89 112 C90.61567436 113.28097336 90.61567436 113.28097336 92.5 114.0625 C93.19222656 114.38347656 93.88445312 114.70445312 94.59765625 115.03515625 C98.25977061 116.50595665 102.00676999 117.71322762 105.77734375 118.875 C108 120 108 120 108.90234375 121.953125 C109.06716619 125.40780325 107.15785506 127.51451249 105 130 C99.58866563 135.68720632 95.66537303 138.41517604 88 140 C87.70609375 141.38445312 87.70609375 141.38445312 87.40625 142.796875 C82.67953021 163.85874359 74.15604394 183.56261013 60 200 C59.41734375 200.70382812 58.8346875 201.40765625 58.234375 202.1328125 C54.30034722 206.84982639 54.30034722 206.84982639 52 208 C52.59897624 212.98819555 54.83253806 216.90160647 57.1875 221.25 C57.59315186 222.00998291 57.99880371 222.76996582 58.41674805 223.55297852 C60.54249521 227.48634814 62.74508738 231.27070813 65.3125 234.9375 C72.16799839 245.02023857 73.51631742 255.01178644 72 267 C69.68703166 276.29281086 64.62130007 284.43798647 56.3125 289.4375 C52.11307089 291.41836279 48.75602316 292.16343882 44.125 292.25 C43.30257812 292.27578125 42.48015625 292.3015625 41.6328125 292.328125 C38.31171822 291.91422007 35.9077856 290.61072672 33 289 C37.33324624 298.99601122 41.69222945 305.77933383 51.75 310.4375 C61.32948993 313.80129036 69.73888459 312.40365239 78.95703125 308.58203125 C82.75649452 306.60670054 85.75184003 304.07886012 89 301.3203125 C91 300 91 300 94.875 300 C96.92057277 300.65458329 98.96246166 301.32082055 101 302 C108.260805 302.46879071 115.02588234 302.05736471 122 300 C122.9590625 299.72027344 123.918125 299.44054687 124.90625 299.15234375 C135.03627126 295.99310732 144.12783521 292.28869703 150 283 C152.53002733 277.14786993 154.047637 271.2930653 155 265 C159.70302377 268.50722653 162.47843581 271.84608662 165 277.1875 C165.33684814 277.88601074 165.67369629 278.58452148 166.02075195 279.30419922 C171.50501255 291.01626084 174.98141336 303.25198314 177.9375 315.8125 C178.16139404 316.74980957 178.38528809 317.68711914 178.6159668 318.65283203 C178.81359619 319.53696777 179.01122559 320.42110352 179.21484375 321.33203125 C179.39136475 322.11296143 179.56788574 322.8938916 179.74975586 323.69848633 C180.109685 327.00878098 179.78706964 329.86943262 177.86328125 332.6328125 C163.44685235 346.50454005 146.37897473 358.17583859 129 368 C128.29278809 368.4021875 127.58557617 368.804375 126.85693359 369.21875 C103.72154164 382.2441741 78.55037591 390.99301461 52.5625 396.3125 C51.84360596 396.45985596 51.12471191 396.60721191 50.3840332 396.7590332 C34.73774391 399.73289088 19.26431954 400.37300362 3.375 400.3125 C2.35709381 400.31034485 1.33918762 400.3081897 0.29043579 400.30596924 C-14.31863523 400.25629854 -28.65075853 400.00540191 -43 397 C-44.46228027 396.70198486 -44.46228027 396.70198486 -45.95410156 396.39794922 C-93.67018904 386.41659905 -139.24953534 364.75046466 -174 330 C-173.94067975 322.09557682 -172.10141616 314.57302805 -170 307 C-169.01 307 -168.02 307 -167 307 C-166.4225 307.9075 -165.845 308.815 -165.25 309.75 C-162.61867492 313.55080289 -160.33625367 315.45196624 -156 317 C-152.11839778 317.60063477 -148.74525208 317.24841736 -145 316 C-141.14651909 314.71550636 -138.04806283 314.86041163 -134 315 C-133.54560547 316.01320313 -133.54560547 316.01320313 -133.08203125 317.046875 C-129.93384106 324.27833722 -129.93384106 324.27833722 -124 329 C-115.21895163 329.86066369 -107.20203037 328.21529013 -98.75 326 C-97.61175781 325.71382813 -96.47351563 325.42765625 -95.30078125 325.1328125 C-92.53039702 324.43439631 -89.76395198 323.72337305 -87 323 C-86.90203125 321.97519531 -86.8040625 320.95039063 -86.703125 319.89453125 C-86.55297049 318.53375598 -86.40187913 317.17308386 -86.25 315.8125 C-86.188125 315.13896484 -86.12625 314.46542969 -86.0625 313.77148438 C-85.51500197 309.09493872 -84.57869973 306.13440538 -81 303 C-77.04785445 302.1377137 -74.7447093 302.9452997 -71.44921875 305.046875 C-70.18769739 305.93722371 -68.93402366 306.8387724 -67.6875 307.75 C-66.35320675 308.67354214 -65.01598222 309.59286446 -63.67578125 310.5078125 C-63.03850098 310.94383789 -62.4012207 311.37986328 -61.74462891 311.82910156 C-54.11168252 316.95191305 -47.1714525 318.14643156 -38 317 C-32.57048618 315.39348246 -29.13760225 312.76915542 -26 308 C-24.00618456 304.01236911 -24.50103953 299.33664407 -25 295 C-28.18901489 288.85819355 -33.78658326 286.92934344 -39.76953125 283.83984375 C-49.12071789 278.51407724 -54.33382264 270.18913083 -57.3125 260 C-60.53166958 244.1541847 -55.23635335 227.87590851 -47.609375 214.125 C-45.77107493 211.14133021 -45.77107493 211.14133021 -46 208 C-47.64451055 206.63943372 -49.31622887 205.31166701 -51 204 C-64.76888942 188.56215429 -75.37969497 169.5913822 -79.44506836 149.19702148 C-80.37209444 143.15353411 -80.37209444 143.15353411 -83.9609375 138.5859375 C-86.2453218 137.89430808 -86.2453218 137.89430808 -88.625 137.53515625 C-93.91325143 136.34356012 -97.57838584 131.97202535 -100.64453125 127.71875 C-104.08023447 122.0399017 -104.08023447 122.0399017 -103.80078125 118.41796875 C-102.42780108 114.27223837 -99.61067439 112.29199331 -96 110 C-87.05230769 106 -87.05230769 106 -83 106 C-83.05220703 104.47632813 -83.05220703 104.47632813 -83.10546875 102.921875 C-83.52781588 85.62042477 -79.1309205 70.75171496 -67.5625 57.5625 C-66.06221569 56.02139162 -64.54195293 54.49941629 -63 53 C-62.31421875 52.29359375 -61.6284375 51.5871875 -60.921875 50.859375 C-52.09423099 42.29329081 -41.19253085 38.18189265 -29.63305664 34.76831055 C-19.73872256 31.80061771 -12.92857727 27.71993481 -7.6640625 18.71484375 C-4.51714852 12.69756277 -2.18475315 6.42000088 0 0 Z " fill="#F4CC91" transform="translate(253,112)"/>
<path d="M0 0 C1.86441811 1.56327694 3.37732833 3.17449437 5 5 C8.18794342 5 9.72024013 2.62802886 11.953125 0.5078125 C18.37673586 -4.22408405 26.41633061 -3.64748511 34 -3 C47.33626199 -0.12707208 57.85140775 7.23098201 68 16 C68.99 16.80630859 68.99 16.80630859 70 17.62890625 C74.5273061 21.33765924 78.24359448 25.52556928 82 30 C83.16208984 31.3303125 83.16208984 31.3303125 84.34765625 32.6875 C107.9998663 60.17816763 114.57147111 92.60805244 120.24609375 127.5703125 C123.38151299 146.86165472 127.98638657 165.42075977 134.17578125 183.9609375 C136.7393441 193.41331615 137.326375 202.61114693 137.5 212.375 C137.7224068 224.80361517 138.28638247 236.88437261 142.875 248.5625 C143.16455566 249.32626953 143.45411133 250.09003906 143.75244141 250.87695312 C148.11966754 262.18451588 153.04255105 273.28519686 157.89599609 284.390625 C159.83388013 288.97092235 160.53525701 293.04660466 160 298 C159.67386719 298.76183594 159.34773438 299.52367187 159.01171875 300.30859375 C157.74422414 303.68042304 157.72187062 306.59210964 157.625 310.1875 C157.12823141 320.02351804 154.83225039 327.38334618 147.46875 334.18359375 C135.16191205 343.23846661 119.08308268 347.21240038 104 346 C102.33105523 345.33905704 100.66427246 344.6726213 99 344 C95.63118028 343.51421408 94.38573642 343.75245575 91.4921875 345.609375 C90.62851562 346.31578125 89.76484375 347.0221875 88.875 347.75 C79.96075952 354.48043057 71.21450264 357.44315316 60 356 C51.35698142 353.97231236 44.3717738 348.86858928 39.328125 341.5859375 C36 335.84585674 36 335.84585674 36 332 C36.78375 332.33 37.5675 332.66 38.375 333 C45.86404277 335.06594283 52.57989927 334.57992008 59.6796875 331.375 C66.46691407 327.35293981 70.36500353 320.77639068 73.109375 313.53125 C76.31892679 300.80565867 74.50086657 289.34071877 68 278 C66.3430013 275.48802024 64.61016642 273.06419504 62.81640625 270.6484375 C60.60646695 267.42620342 58.77963444 264.09903305 57 260.625 C56.401875 259.46226562 55.80375 258.29953125 55.1875 257.1015625 C54 254 54 254 54.18359375 251.72265625 C55.20825705 249.56056766 56.70931841 248.14948989 58.42578125 246.51171875 C73.98892515 231.56646642 85.89564744 208.16019751 89.36328125 186.7578125 C89.6875 184.875 89.6875 184.875 91 182 C93.14212737 181.0267192 95.27152492 180.46171446 97.546875 179.8671875 C102.87904082 177.9822499 106.73735754 173.73613338 110 169.25 C111.20306923 166.9534633 111.20306923 166.9534633 111 164 C110.29875 163.75765625 109.5975 163.5153125 108.875 163.265625 C104.38770085 161.6804378 99.90454624 160.07851041 95.5625 158.125 C94.96566406 157.85945312 94.36882812 157.59390625 93.75390625 157.3203125 C90.52154746 154.88704464 88.3299129 151.98134264 87.65454102 147.92529297 C87.52525018 145.57040769 87.49718099 143.23333982 87.5 140.875 C87.29053897 132.94659634 86.22926737 126.32837108 83 119 C82.62746094 118.13117188 82.25492187 117.26234375 81.87109375 116.3671875 C78.06164541 108.14481385 72.64483978 101.14647679 66 95 C65.52433594 94.53078125 65.04867187 94.0615625 64.55859375 93.578125 C55.86284874 85.44812726 44.74921813 81.99418472 33.56201172 78.71118164 C24.11800653 75.79737993 16.99388789 70.61413567 12 62 C5 47.98174231 5 47.98174231 5 43 C4.34 43 3.68 43 3 43 C2.88011719 43.86882812 2.76023438 44.73765625 2.63671875 45.6328125 C0.48382293 57.01806522 -5.50416373 67.29705675 -15 74 C-19.88185678 76.74126633 -25.13593743 78.38042882 -30.44970703 80.05932617 C-49.59245104 86.1613478 -62.81228115 95.96209478 -72.37890625 113.67578125 C-78.12206873 125.45272407 -79.39693704 136.06588654 -80 149 C-80.86882812 149.30292969 -81.73765625 149.60585937 -82.6328125 149.91796875 C-91.68773085 153.0868335 -91.68773085 153.0868335 -99 159 C-100.04345243 162.05400712 -100.20973907 163.4776926 -98.99609375 166.5 C-93.91584793 174.97497927 -93.91584793 174.97497927 -85.5390625 179.62109375 C-82.5242328 180.40353489 -80.49720767 181.11408796 -78 183 C-76.78809571 186.01082472 -76.08412869 188.92167235 -75.46728516 192.10229492 C-71.81821801 210.86981757 -62.35708141 228.5745659 -50 243 C-49.06207822 244.16632761 -48.12451287 245.33294206 -47.1875 246.5 C-45.06495548 249.14513065 -45.06495548 249.14513065 -42 251 C-42.5961728 255.30834212 -44.19054893 258.35365228 -46.3125 262.125 C-53.23550244 275.20711188 -56.27468241 291.27154708 -52.375 305.625 C-48.66424635 316.7051802 -41.61229567 323.69584412 -31.375 329 C-26.61278174 331.54814705 -23.61985642 333.21198654 -21 338 C-20.12270888 343.33552509 -20.29278335 347.55937349 -22.6875 352.4375 C-27.10676365 357.33452189 -31.23603567 360.41495465 -37.83984375 361.44140625 C-50.46754789 361.93504916 -60.09324439 355.99572852 -69.71875 348.28515625 C-72.72278022 346.59281731 -74.60664322 346.48461113 -78 347 C-81.6249764 350.05095628 -81.7280536 354.29041934 -82.1875 358.75 C-82.26935547 359.44738281 -82.35121094 360.14476562 -82.43554688 360.86328125 C-82.63477133 362.57426776 -82.81889929 364.28700037 -83 366 C-110.09726363 375.44432315 -110.09726363 375.44432315 -121 373 C-125.71110433 370.66986746 -128.06265797 367.45830835 -129.9375 362.625 C-130.288125 361.42875 -130.63875 360.2325 -131 359 C-136.59729096 358.787959 -136.59729096 358.787959 -142 360 C-147.44410284 361.81470095 -151.40109008 361.63405049 -156.625 359.5625 C-161.5425375 356.43828466 -164.446114 351.10777201 -167 346 C-167.78375 345.566875 -168.5675 345.13375 -169.375 344.6875 C-172.44709627 342.71258097 -173.39550509 341.25927313 -175 338 C-178.16871589 319.42985109 -166.91962575 302.31015735 -158 287 C-157.51241211 286.16049805 -157.02482422 285.32099609 -156.52246094 284.45605469 C-155.55185878 282.78543075 -154.58075701 281.11509696 -153.60913086 279.44506836 C-143.11013505 261.38780527 -135.12614038 243.98710006 -131.46875 223.28125 C-131.25476059 222.07335815 -131.04077118 220.86546631 -130.82029724 219.62097168 C-128.62861553 206.67513755 -127.47571233 193.66792425 -126.40237427 180.59014893 C-125.8242285 173.57428789 -125.18336781 166.56401301 -124.53125 159.5546875 C-124.46748735 158.86908123 -124.40372471 158.18347496 -124.33802986 157.47709274 C-120.75297753 119.24086809 -113.38892831 81.08106437 -95 47 C-94.44699219 45.95457031 -93.89398438 44.90914062 -93.32421875 43.83203125 C-81.51847783 22.50280481 -64.37579241 6.74304792 -41 -1 C-28.18223796 -4.52808544 -11.99299758 -7.37486885 0 0 Z " fill="#0E0D0B" transform="translate(250,69)"/>
<path d="M0 0 C4.70302377 3.50722653 7.47843581 6.84608662 10 12.1875 C10.50527222 13.23526611 10.50527222 13.23526611 11.02075195 14.30419922 C16.50501255 26.01626084 19.98141336 38.25198314 22.9375 50.8125 C23.16139404 51.74980957 23.38528809 52.68711914 23.6159668 53.65283203 C23.81359619 54.53696777 24.01122559 55.42110352 24.21484375 56.33203125 C24.39136475 57.11296143 24.56788574 57.8938916 24.74975586 58.69848633 C25.109685 62.00878098 24.78706964 64.86943262 22.86328125 67.6328125 C8.44685235 81.50454005 -8.62102527 93.17583859 -26 103 C-27.06081787 103.60328125 -27.06081787 103.60328125 -28.14306641 104.21875 C-51.27845836 117.2441741 -76.44962409 125.99301461 -102.4375 131.3125 C-103.15639404 131.45985596 -103.87528809 131.60721191 -104.6159668 131.7590332 C-120.26225609 134.73289088 -135.73568046 135.37300362 -151.625 135.3125 C-152.64290619 135.31034485 -153.66081238 135.3081897 -154.70956421 135.30596924 C-169.31863523 135.25629854 -183.65075853 135.00540191 -198 132 C-199.46228027 131.70198486 -199.46228027 131.70198486 -200.95410156 131.39794922 C-248.67018904 121.41659905 -294.24953534 99.75046466 -329 65 C-328.94067975 57.09557682 -327.10141616 49.57302805 -325 42 C-324.01 42 -323.02 42 -322 42 C-321.4225 42.9075 -320.845 43.815 -320.25 44.75 C-317.61867492 48.55080289 -315.33625367 50.45196624 -311 52 C-307.11839778 52.60063477 -303.74525208 52.24841736 -300 51 C-296.14651909 49.71550636 -293.04806283 49.86041163 -289 50 C-288.69707031 50.67546875 -288.39414062 51.3509375 -288.08203125 52.046875 C-284.93384106 59.27833722 -284.93384106 59.27833722 -279 64 C-270.21895163 64.86066369 -262.20203037 63.21529013 -253.75 61 C-252.61175781 60.71382813 -251.47351563 60.42765625 -250.30078125 60.1328125 C-247.53039702 59.43439631 -244.76395198 58.72337305 -242 58 C-241.90203125 56.97519531 -241.8040625 55.95039063 -241.703125 54.89453125 C-241.55297049 53.53375598 -241.40187913 52.17308386 -241.25 50.8125 C-241.1571875 49.80219727 -241.1571875 49.80219727 -241.0625 48.77148438 C-240.51500197 44.09493872 -239.57869973 41.13440538 -236 38 C-232.04785445 37.1377137 -229.7447093 37.9452997 -226.44921875 40.046875 C-225.18769739 40.93722371 -223.93402366 41.8387724 -222.6875 42.75 C-221.35320675 43.67354214 -220.01598222 44.59286446 -218.67578125 45.5078125 C-218.03850098 45.94383789 -217.4012207 46.37986328 -216.74462891 46.82910156 C-209.11168252 51.95191305 -202.1714525 53.14643156 -193 52 C-187.57048618 50.39348246 -184.13760225 47.76915542 -181 43 C-179.70241739 40.40483479 -179.86730898 38.45816973 -179.875 35.5625 C-179.87242187 34.59441406 -179.86984375 33.62632812 -179.8671875 32.62890625 C-179.88786027 29.88982171 -179.88786027 29.88982171 -181 27 C-179.081875 27.433125 -179.081875 27.433125 -177.125 27.875 C-175.41894622 28.26023795 -173.70998452 28.63260279 -172 29 C-171.27611084 29.16612793 -170.55222168 29.33225586 -169.80639648 29.50341797 C-163.76169445 30.82271464 -157.99514531 31.38486438 -151.8125 31.375 C-150.90701416 31.37556396 -150.00152832 31.37612793 -149.06860352 31.37670898 C-140.8593567 31.24400938 -133.76945815 29.5760254 -126 27 C-124.67043621 26.65193533 -123.33872991 26.31095194 -122 26 C-121.36384766 27.08667969 -121.36384766 27.08667969 -120.71484375 28.1953125 C-114.87028033 37.82920825 -109.20315367 44.12698495 -98 47 C-88.90603979 48.33295033 -81.08548685 46.20362282 -73 42 C-70.58111132 40.19042167 -68.30156566 38.27495099 -66 36.3203125 C-64 35 -64 35 -60.125 35 C-58.07942723 35.65458329 -56.03753834 36.32082055 -54 37 C-46.739195 37.46879071 -39.97411766 37.05736471 -33 35 C-32.0409375 34.72027344 -31.081875 34.44054687 -30.09375 34.15234375 C-19.96372874 30.99310732 -10.87216479 27.28869703 -5 18 C-2.46997267 12.14786993 -0.952363 6.2930653 0 0 Z " fill="#EFC748" transform="translate(408,377)"/>
<path d="M0 0 C0.48106201 0.37874268 0.96212402 0.75748535 1.45776367 1.14770508 C6.20490446 4.80732949 11.01256314 7.89728254 16.3125 10.6875 C16.99505859 11.06455078 17.67761719 11.44160156 18.38085938 11.83007812 C27.80480953 16.83464109 37.14117343 18.56795567 47.75 18.5 C48.79841064 18.49427979 49.84682129 18.48855957 50.92700195 18.48266602 C68.1619602 18.08851936 82.55804124 10.38415337 96 0 C96.45270264 0.88353149 96.45270264 0.88353149 96.91455078 1.78491211 C98.31247102 4.50534058 99.71867878 7.22140551 101.125 9.9375 C101.599375 10.86369141 102.07375 11.78988281 102.5625 12.74414062 C105.31745821 18.04929664 108.24500386 23.07964019 111.66210938 27.98681641 C117.76814145 37.17483474 118.35684084 47.27263021 117 58 C114.68703166 67.29281086 109.62130007 75.43798647 101.3125 80.4375 C95.57722474 83.14281852 90.30062723 83.59439879 84 83 C80.375 81.5 80.375 81.5 78 80 C77.505 81.485 77.505 81.485 77 83 C74.234375 84.1328125 74.234375 84.1328125 70.75 85.125 C69.61046875 85.45757812 68.4709375 85.79015625 67.296875 86.1328125 C50.72045329 90.49296134 30.27097441 89.44469296 15.078125 80.921875 C13.04815078 79.62060947 11.02401519 78.31051343 9 77 C7.89398438 76.33484375 7.89398438 76.33484375 6.765625 75.65625 C-3.16921987 69.48979456 -8.85526211 62.28196926 -12 51 C-12.19078125 50.31679688 -12.3815625 49.63359375 -12.578125 48.9296875 C-16.26972472 32.04403694 -7.98911588 14.28822648 0 0 Z " fill="#E0B479" transform="translate(208,321)"/>
<path d="M0 0 C-0.33 0.33 -0.66 0.66 -1 1 C-1.95496235 11.23808478 -0.12392724 21.82935524 1 32 C-7.14541033 31.01908872 -11.57245968 28.07720755 -16.671875 21.796875 C-19.11869994 18.48646478 -20.91651659 15.66966821 -21.125 11.5 C-18.42695984 5.5043552 -13.1164478 2.82188878 -7.1875 0.5625 C-2.30769231 -1.15384615 -2.30769231 -1.15384615 0 0 Z " fill="#DDB278" transform="translate(170,219)"/>
<path d="M0 0 C0.33 0 0.66 0 1 0 C1.658717 13.17434008 1.32641927 23.77545164 -7.375 34.5 C-12.13559043 39.48876687 -17.495737 42.69402321 -24.47265625 43.16796875 C-25.75462891 43.17763672 -25.75462891 43.17763672 -27.0625 43.1875 C-27.91972656 43.20167969 -28.77695312 43.21585937 -29.66015625 43.23046875 C-32 43 -32 43 -35 41 C-34.04480469 40.46632813 -33.08960938 39.93265625 -32.10546875 39.3828125 C-18.16500503 31.42381186 -6.67094455 22.63881624 -1 7 C-0.6186926 4.67402489 -0.27539746 2.34087842 0 0 Z " fill="#EAC448" transform="translate(324,361)"/>
<path d="M0 0 C6.82365366 2.48132861 12.70843624 4.67615499 19 8 C18.08589844 14.91589999 13.3050343 18.6949657 8.5625 23.4375 C6 25 6 25 -2 26 C-1.34 17.42 -0.68 8.84 0 0 Z " fill="#DEB378" transform="translate(343,225)"/>
</svg>
